<?xml version="1.0" encoding="UTF-8"?>
<svg id="Design" xmlns="http://www.w3.org/2000/svg" viewBox="0 0 730.68 477.31">
  <defs>
    <style>
      .cls-1 {
        fill: #2d3750;
      }

      .cls-1, .cls-2 {
        stroke-width: 0px;
      }

      .cls-2 {
        fill: #05a9c7;
      }
    </style>
  </defs>
  <g>
    <path class="cls-1" d="M520.94,45.87h-32.89c-10.8,0-20.8,5.7-26.3,15l-48.36,81.72-48.36-81.72c-5.5-9.3-15.5-15-26.3-15h-32.89c-6.76,0-10.96,7.36-7.52,13.18l107.55,182.1c3.38,5.73,11.66,5.73,15.05,0l107.55-182.1c3.44-5.82-.76-13.18-7.52-13.18Z"/>
    <path class="cls-2" d="M202.22,59.05l107.54,182.09c3.38,5.73,11.67,5.72,15.05,0l16.18-27.44c5.66-9.59,5.65-21.5-.02-31.09l-72.04-121.74c-5.5-9.3-15.5-15-26.3-15h-32.89c-6.76,0-10.96,7.36-7.52,13.18Z"/>
    <path class="cls-2" d="M416.69,89.27l22.24-37.66c1.5-2.54-.33-5.74-3.28-5.74h-44.53c-2.95,0-4.78,3.21-3.27,5.74l22.28,37.66c1.47,2.49,5.08,2.49,6.55,0Z"/>
  </g>
  <g>
    <polygon class="cls-1" points="139.14 290.61 129.28 344.26 117.46 290.61 97.95 290.61 86.68 344.59 76.6 290.61 52.75 290.61 73.24 362.15 97.73 362.15 104.67 331.58 107.6 313.7 107.92 313.7 110.85 331.58 117.79 362.15 141.63 362.15 162.12 290.61 139.14 290.61"/>
    <path class="cls-1" d="M197.24,342.96c-.58,1.66-1.52,2.96-2.82,3.9-1.3.94-3.11,1.41-5.42,1.41-2.1,0-3.83-.36-5.2-1.08-1.37-.72-2.44-2.02-3.2-3.9-.39-.96-.68-2.12-.87-3.47h35.61c.14-.87.25-1.91.32-3.14.07-1.23.11-2.46.11-3.69,0-5.13-1.08-9.66-3.25-13.6-2.17-3.94-5.33-7.01-9.48-9.21-4.16-2.2-9.2-3.31-15.12-3.31s-10.98,1.1-15.39,3.31c-4.41,2.21-7.82,5.42-10.24,9.65-2.42,4.23-3.63,9.3-3.63,15.23s1.21,11,3.63,15.23c2.42,4.23,5.89,7.44,10.41,9.65,4.52,2.21,9.92,3.31,16.2,3.31,3.9,0,7.66-.56,11.27-1.68,3.61-1.12,6.74-2.8,9.38-5.04,2.64-2.24,4.39-5.02,5.26-8.35l-17.56-5.2ZM183.2,323.02c1.34-.94,2.91-1.41,4.72-1.41,2.82,0,4.77,1.08,5.85,3.25.7,1.4,1.17,3.21,1.42,5.42h-15.43c.14-1.08.33-2.04.57-2.87.58-1.99,1.53-3.45,2.87-4.39Z"/>
    <path class="cls-1" d="M258.26,328.33l-8.67-1.52c-2.24-.43-3.76-.94-4.55-1.52-.8-.58-1.19-1.19-1.19-1.84,0-.58.22-1.08.65-1.52.43-.43,1.1-.76,2.01-.98.9-.22,2.08-.32,3.52-.32,2.67,0,5.51.54,8.51,1.63,3,1.08,5.4,2.53,7.21,4.34l8.78-11.16c-2.67-2.67-6.2-4.77-10.57-6.29-4.37-1.52-9.3-2.28-14.8-2.28-6.43,0-11.65.9-15.66,2.71-4.01,1.81-6.94,4.08-8.78,6.83-1.84,2.75-2.76,5.6-2.76,8.56,0,4.63,1.53,8.33,4.61,11.11,3.07,2.78,8.29,4.9,15.66,6.34l5.53,1.08c2.02.43,3.34.87,3.96,1.3.61.43.92,1.01.92,1.73,0,1.08-.6,1.84-1.79,2.28-1.19.43-2.66.65-4.39.65-3.4,0-6.65-.72-9.76-2.17-3.11-1.44-5.57-3.18-7.37-5.2l-8.89,11.71c3.4,3.04,7.48,5.37,12.25,6.99,4.77,1.63,9.83,2.44,15.18,2.44,6.21,0,11.27-.87,15.18-2.6,3.9-1.73,6.81-4.06,8.73-6.99,1.91-2.93,2.87-6.12,2.87-9.59,0-3.97-1.3-7.33-3.9-10.08-2.6-2.75-6.76-4.62-12.47-5.64Z"/>
    <path class="cls-1" d="M286.44,344.81c0,4.48.85,8.06,2.55,10.73,1.7,2.67,4.15,4.62,7.37,5.85,3.21,1.23,7.14,1.84,11.76,1.84,2.82,0,5.71-.34,8.67-1.03,2.96-.69,5.31-1.64,7.05-2.87l-1.41-12.79c-1.01.65-2.1,1.12-3.25,1.41-1.16.29-2.53.43-4.12.43-2.24,0-3.92-.54-5.04-1.63-1.12-1.08-1.68-2.89-1.68-5.42v-18.32h14.74v-15.07h-14.74v-17.89l-21.9,6.07v11.82h-8.89v15.07h8.89v21.79Z"/>
    <polygon class="cls-1" points="399.47 362.15 424.18 290.61 401.85 290.61 390.26 331.91 386.79 345.67 383.1 331.69 371.61 290.61 348.52 290.61 373.24 362.15 399.47 362.15"/>
    <path class="cls-1" d="M480.87,349.68c-.58.29-1.41.43-2.49.43-2.67,0-4.01-1.48-4.01-4.44v-18.1c0-4.34-.98-8.06-2.93-11.17-1.95-3.11-4.92-5.47-8.89-7.1-3.98-1.63-8.82-2.44-14.52-2.44-8.53,0-15.05,1.66-19.56,4.99-4.52,3.33-7.14,7.8-7.86,13.44l18.54,3.25c.36-2.74,1.21-4.62,2.55-5.64,1.34-1.01,2.94-1.52,4.82-1.52,2.02,0,3.56.58,4.61,1.73,1.05,1.16,1.57,2.78,1.57,4.88v1.88l-17.78,3.75c-4.99.94-8.71,2.67-11.16,5.2-2.46,2.53-3.68,5.78-3.68,9.76,0,3.04.72,5.67,2.17,7.91,1.44,2.24,3.5,3.92,6.18,5.04,2.67,1.12,5.89,1.68,9.65,1.68,3.4,0,6.56-.6,9.48-1.79,2.93-1.19,5.26-2.85,6.99-4.99.42-.52.79-1.06,1.11-1.62.33.99.76,1.9,1.33,2.7,1.34,1.92,3.22,3.34,5.64,4.28,2.42.94,5.18,1.41,8.29,1.41,3.54,0,6.5-.58,8.89-1.73l1.08-11.82ZM452.15,346.16c-.36.83-.85,1.54-1.46,2.11-.62.58-1.34,1.01-2.17,1.3-.83.29-1.64.43-2.44.43-1.52,0-2.75-.36-3.69-1.08-.94-.72-1.41-1.73-1.41-3.04,0-1.52.43-2.69,1.3-3.52.87-.83,2.24-1.46,4.12-1.9l6.29-1.31v4.02c0,1.16-.18,2.15-.54,2.98Z"/>
    <path class="cls-1" d="M503.74,363.23c2.31,0,4.64-.29,6.99-.87,2.35-.58,4.17-1.34,5.47-2.28l1.19-12.36c-.8.29-1.54.49-2.22.6-.69.11-1.46.16-2.33.16-1.81,0-3.07-.5-3.79-1.52-.72-1.01-1.08-2.67-1.08-4.99v-56.37h-21.9v59.51c0,6.5,1.37,11.15,4.12,13.93,2.75,2.78,7.26,4.17,13.55,4.17Z"/>
    <path class="cls-1" d="M539.95,363.23c2.31,0,4.64-.29,6.99-.87,2.35-.58,4.17-1.34,5.47-2.28l1.19-12.36c-.8.29-1.54.49-2.22.6-.69.11-1.46.16-2.33.16-1.81,0-3.07-.5-3.79-1.52-.72-1.01-1.08-2.67-1.08-4.99v-56.37h-21.9v59.51c0,6.5,1.37,11.15,4.12,13.93,2.75,2.78,7.26,4.17,13.55,4.17Z"/>
    <path class="cls-1" d="M600.59,310.18c-4.16-2.2-9.2-3.31-15.12-3.31s-10.99,1.1-15.39,3.31c-4.41,2.21-7.82,5.42-10.24,9.65-2.42,4.23-3.63,9.3-3.63,15.23s1.21,11,3.63,15.23c2.42,4.23,5.89,7.44,10.41,9.65,4.51,2.21,9.92,3.31,16.2,3.31,3.9,0,7.66-.56,11.27-1.68,3.61-1.12,6.74-2.8,9.38-5.04,2.64-2.24,4.39-5.02,5.26-8.35l-17.56-5.2c-.58,1.66-1.52,2.96-2.82,3.9-1.3.94-3.11,1.41-5.42,1.41-2.1,0-3.83-.36-5.2-1.08-1.37-.72-2.44-2.02-3.2-3.9-.39-.96-.68-2.12-.87-3.47h35.61c.14-.87.25-1.91.32-3.14.07-1.23.11-2.46.11-3.69,0-5.13-1.08-9.66-3.25-13.6-2.17-3.94-5.33-7.01-9.48-9.21ZM580.76,323.02c1.34-.94,2.91-1.41,4.72-1.41,2.82,0,4.77,1.08,5.85,3.25.7,1.4,1.17,3.21,1.42,5.42h-15.43c.14-1.08.33-2.04.57-2.87.58-1.99,1.53-3.45,2.87-4.39Z"/>
    <path class="cls-1" d="M656.36,307.95l-6.72,29.05-2.71,12.36-2.28-12.03-6.5-29.37h-23.95l15.83,40.43,6.5,15.39-.76,2.06c-.58,1.52-1.48,2.57-2.71,3.14-1.23.58-2.96.87-5.2.87-2.39,0-4.28-.18-5.69-.54-1.41-.36-2.73-.9-3.96-1.63l-4.12,14.2c1.95,1.08,4.26,1.95,6.94,2.6,2.67.65,5.64.97,8.89.97,5.27,0,9.76-.87,13.44-2.6,3.69-1.73,6.88-4.54,9.59-8.4,2.71-3.87,5.15-9.05,7.32-15.55l17.67-50.95h-21.57Z"/>
    <path class="cls-1" d="M175.11,406.78v-.05c2.19-.33,3.81-1.11,4.85-2.34,1.04-1.23,1.55-2.7,1.55-4.42,0-2.61-.89-4.59-2.68-5.93-1.79-1.34-4.55-2.02-8.27-2.05h-15.82v29.75h16.77c3.61,0,6.3-.68,8.09-2.03,1.79-1.35,2.68-3.32,2.68-5.9,0-1.86-.59-3.43-1.76-4.69-1.17-1.26-2.97-2.04-5.41-2.34ZM163.57,398.49h5.14c2.25,0,3.38.89,3.38,2.66s-1.13,2.66-3.38,2.66h-5.14v-5.32ZM172,414.83c-.57.47-1.44.7-2.61.7h-5.81v-5.36h5.81c1.17,0,2.04.23,2.61.68.57.45.86,1.11.86,1.98s-.29,1.54-.86,2.01Z"/>
    <path class="cls-1" d="M199.85,411.2c0,.72-.07,1.35-.2,1.89-.14.54-.33.98-.59,1.31-.26.33-.56.58-.92.74-.36.17-.75.25-1.17.25-.81,0-1.43-.24-1.85-.72-.42-.48-.63-1.29-.63-2.43v-13.03h-9.11v15.15c0,1.86.31,3.37.92,4.53.62,1.16,1.49,2,2.61,2.52,1.13.53,2.46.79,3.99.79,1.83,0,3.4-.41,4.69-1.24,1.29-.83,2.28-2.07,2.97-3.72l.23,4.51h8.16v-22.54h-9.11v11.99Z"/>
    <path class="cls-1" d="M227.66,407.68l-3.61-.63c-.93-.18-1.56-.39-1.89-.63-.33-.24-.5-.5-.5-.77,0-.24.09-.45.27-.63.18-.18.46-.32.83-.41.38-.09.86-.14,1.47-.14,1.11,0,2.29.23,3.54.68,1.25.45,2.25,1.05,3,1.8l3.65-4.64c-1.11-1.11-2.58-1.98-4.39-2.61-1.82-.63-3.87-.95-6.15-.95-2.67,0-4.85.38-6.51,1.13-1.67.75-2.88,1.7-3.65,2.84-.77,1.14-1.15,2.33-1.15,3.56,0,1.92.64,3.46,1.92,4.62,1.28,1.16,3.45,2.04,6.51,2.64l2.3.45c.84.18,1.39.36,1.65.54.26.18.38.42.38.72,0,.45-.25.77-.74.95-.5.18-1.1.27-1.83.27-1.41,0-2.77-.3-4.06-.9-1.29-.6-2.31-1.32-3.06-2.16l-3.7,4.87c1.41,1.26,3.11,2.23,5.09,2.91,1.98.68,4.09,1.01,6.31,1.01,2.58,0,4.69-.36,6.31-1.08s2.83-1.69,3.63-2.91c.8-1.22,1.19-2.55,1.19-3.99,0-1.65-.54-3.05-1.62-4.19-1.08-1.14-2.81-1.92-5.18-2.34Z"/>
    <rect class="cls-1" x="237.53" y="399.21" width="9.11" height="22.54"/>
    <path class="cls-1" d="M242.09,389.16c-1.8,0-3.1.32-3.9.95-.8.63-1.19,1.67-1.19,3.11s.4,2.43,1.19,3.06c.8.63,2.1.95,3.9.95s3.1-.32,3.9-.95c.8-.63,1.19-1.65,1.19-3.06s-.4-2.48-1.19-3.11c-.8-.63-2.1-.95-3.9-.95Z"/>
    <path class="cls-1" d="M271.18,399.64c-1.1-.59-2.41-.88-3.94-.88s-2.94.32-4.12.95c-1.19.63-2.16,1.55-2.91,2.77-.28.46-.52.96-.72,1.49l-.22-4.76h-8.2v22.54h9.11v-11.9c0-1.02.13-1.85.38-2.48.26-.63.62-1.09,1.08-1.38.47-.29.98-.43,1.56-.43.75,0,1.33.23,1.74.7.41.47.61,1.33.61,2.59v12.89h9.11v-15.24c0-1.68-.3-3.1-.9-4.26-.6-1.16-1.45-2.03-2.55-2.61Z"/>
    <path class="cls-1" d="M296.47,400.13c-1.73-.92-3.82-1.37-6.29-1.37s-4.57.46-6.4,1.37c-1.83.92-3.25,2.25-4.26,4.01-1.01,1.76-1.51,3.87-1.51,6.33s.5,4.58,1.51,6.33c1.01,1.76,2.45,3.1,4.33,4.01,1.88.92,4.12,1.37,6.74,1.37,1.62,0,3.18-.23,4.69-.7,1.5-.47,2.8-1.16,3.9-2.1,1.1-.93,1.83-2.09,2.19-3.47l-7.3-2.16c-.24.69-.63,1.23-1.17,1.62-.54.39-1.29.59-2.25.59-.87,0-1.59-.15-2.16-.45-.57-.3-1.01-.84-1.33-1.62-.16-.4-.28-.88-.36-1.44h14.81c.06-.36.1-.8.14-1.31.03-.51.05-1.02.05-1.53,0-2.13-.45-4.02-1.35-5.66-.9-1.64-2.22-2.91-3.94-3.83ZM288.22,405.47c.56-.39,1.21-.59,1.96-.59,1.17,0,1.98.45,2.43,1.35.29.58.48,1.34.58,2.25h-6.4c.06-.44.13-.85.23-1.19.24-.83.64-1.43,1.19-1.83Z"/>
    <path class="cls-1" d="M319.43,407.68l-3.61-.63c-.93-.18-1.56-.39-1.89-.63-.33-.24-.5-.5-.5-.77,0-.24.09-.45.27-.63.18-.18.46-.32.83-.41.38-.09.86-.14,1.47-.14,1.11,0,2.29.23,3.54.68,1.25.45,2.25,1.05,3,1.8l3.65-4.64c-1.11-1.11-2.58-1.98-4.4-2.61-1.82-.63-3.87-.95-6.15-.95-2.67,0-4.85.38-6.51,1.13-1.67.75-2.88,1.7-3.65,2.84-.77,1.14-1.15,2.33-1.15,3.56,0,1.92.64,3.46,1.92,4.62,1.28,1.16,3.45,2.04,6.51,2.64l2.3.45c.84.18,1.39.36,1.65.54.25.18.38.42.38.72,0,.45-.25.77-.74.95-.5.18-1.1.27-1.83.27-1.41,0-2.77-.3-4.06-.9-1.29-.6-2.31-1.32-3.06-2.16l-3.7,4.87c1.41,1.26,3.11,2.23,5.09,2.91,1.98.68,4.09,1.01,6.31,1.01,2.58,0,4.69-.36,6.31-1.08,1.62-.72,2.83-1.69,3.63-2.91.8-1.22,1.19-2.55,1.19-3.99,0-1.65-.54-3.05-1.62-4.19-1.08-1.14-2.81-1.92-5.18-2.34Z"/>
    <path class="cls-1" d="M343.59,407.68l-3.61-.63c-.93-.18-1.56-.39-1.89-.63-.33-.24-.5-.5-.5-.77,0-.24.09-.45.27-.63.18-.18.46-.32.83-.41.38-.09.86-.14,1.46-.14,1.11,0,2.29.23,3.54.68,1.25.45,2.25,1.05,3,1.8l3.65-4.64c-1.11-1.11-2.58-1.98-4.39-2.61-1.82-.63-3.87-.95-6.15-.95-2.67,0-4.85.38-6.51,1.13-1.67.75-2.88,1.7-3.65,2.84-.77,1.14-1.15,2.33-1.15,3.56,0,1.92.64,3.46,1.92,4.62,1.28,1.16,3.45,2.04,6.51,2.64l2.3.45c.84.18,1.39.36,1.65.54.25.18.38.42.38.72,0,.45-.25.77-.74.95-.5.18-1.1.27-1.83.27-1.41,0-2.77-.3-4.06-.9-1.29-.6-2.31-1.32-3.06-2.16l-3.7,4.87c1.41,1.26,3.11,2.23,5.09,2.91,1.98.68,4.09,1.01,6.31,1.01,2.58,0,4.69-.36,6.31-1.08,1.62-.72,2.83-1.69,3.63-2.91.8-1.22,1.19-2.55,1.19-3.99,0-1.65-.54-3.05-1.62-4.19-1.08-1.14-2.81-1.92-5.18-2.34Z"/>
    <polygon class="cls-1" points="374.92 410.12 386.73 410.12 386.73 403.71 374.92 403.71 374.92 398.89 389.7 398.89 389.7 392 365.72 392 365.72 421.74 390.29 421.74 390.29 414.85 374.92 414.85 374.92 410.12"/>
    <polygon class="cls-1" points="418.69 399.21 408.54 399.21 405.1 406.13 401.69 399.21 391.37 399.21 399.07 410.29 391.1 421.74 401.33 421.74 404.91 414.5 408.5 421.74 418.87 421.74 410.99 410.42 418.69 399.21"/>
    <path class="cls-1" d="M429.32,405.56c.51-.36,1.14-.54,1.89-.54.87,0,1.51.3,1.92.9.41.6.65,1.52.74,2.75l8.43-2.57c-.12-1.23-.6-2.41-1.44-3.54-.84-1.13-2.08-2.04-3.72-2.75-1.64-.71-3.72-1.06-6.24-1.06s-4.57.46-6.4,1.37c-1.83.92-3.26,2.25-4.28,3.99-1.02,1.74-1.53,3.86-1.53,6.36s.51,4.61,1.53,6.36c1.02,1.74,2.48,3.07,4.37,3.99,1.89.92,4.13,1.37,6.72,1.37,2.16,0,4.04-.32,5.63-.95,1.59-.63,2.85-1.47,3.76-2.52.92-1.05,1.44-2.22,1.55-3.52l-8.16-2.57c-.06.69-.21,1.28-.45,1.78-.24.5-.55.87-.92,1.13-.38.26-.86.38-1.47.38-.66,0-1.25-.16-1.78-.47-.53-.32-.93-.86-1.22-1.65-.29-.78-.43-1.86-.43-3.25s.12-2.43.36-3.25c.24-.81.62-1.4,1.13-1.76Z"/>
    <path class="cls-1" d="M465.45,399.64c-1.1-.59-2.41-.88-3.94-.88-1.65,0-3.09.41-4.3,1.24-1.22.83-2.14,2.02-2.77,3.58v-13.66h-9.1v31.82h9.1v-11.85c0-.99.13-1.81.38-2.46.26-.65.62-1.12,1.08-1.42.47-.3,1-.45,1.6-.45.72,0,1.28.24,1.69.72.41.48.61,1.37.61,2.66v12.8h9.11v-15.24c0-1.68-.3-3.1-.9-4.26-.6-1.16-1.45-2.03-2.55-2.61Z"/>
    <path class="cls-1" d="M494.68,414.89v-7.53c0-1.8-.41-3.35-1.22-4.64-.81-1.29-2.04-2.28-3.7-2.95-1.65-.68-3.67-1.01-6.04-1.01-3.55,0-6.26.69-8.14,2.07-1.88,1.38-2.97,3.25-3.27,5.59l7.71,1.35c.15-1.14.5-1.92,1.06-2.34.56-.42,1.22-.63,2.01-.63.84,0,1.48.24,1.92.72.44.48.65,1.16.65,2.03v.78l-7.39,1.56c-2.07.39-3.62,1.11-4.64,2.16-1.02,1.05-1.53,2.4-1.53,4.06,0,1.26.3,2.36.9,3.29.6.93,1.46,1.63,2.57,2.1s2.45.7,4.01.7c1.41,0,2.73-.25,3.94-.74,1.22-.5,2.19-1.19,2.91-2.07.18-.22.33-.45.47-.68.14.41.31.8.54,1.13.56.8,1.34,1.39,2.34,1.78,1.01.39,2.16.59,3.45.59,1.47,0,2.7-.24,3.7-.72l.45-4.91c-.24.12-.59.18-1.04.18-1.11,0-1.67-.62-1.67-1.85ZM485.44,415.1c-.15.35-.35.64-.61.88-.26.24-.56.42-.9.54-.35.12-.68.18-1.01.18-.63,0-1.14-.15-1.53-.45-.39-.3-.59-.72-.59-1.26,0-.63.18-1.12.54-1.46.36-.35.93-.61,1.71-.79l2.61-.54v1.67c0,.48-.08.89-.23,1.24Z"/>
    <path class="cls-1" d="M519.72,399.64c-1.1-.59-2.41-.88-3.94-.88s-2.94.32-4.12.95c-1.19.63-2.16,1.55-2.91,2.77-.28.46-.51.96-.72,1.49l-.22-4.76h-8.2v22.54h9.11v-11.9c0-1.02.13-1.85.38-2.48.26-.63.62-1.09,1.08-1.38.47-.29.98-.43,1.56-.43.75,0,1.33.23,1.74.7.41.47.61,1.33.61,2.59v12.89h9.11v-15.24c0-1.68-.3-3.1-.9-4.26-.6-1.16-1.45-2.03-2.55-2.61Z"/>
    <path class="cls-1" d="M549.63,398.17c.21,0,.42,0,.63.02.21.02.45.05.72.11l-.63-5.81c-.15-.03-.3-.05-.45-.05h-.41c-1.56,0-2.82.41-3.76,1.22-.95.81-1.63,1.83-2.05,3.07-.28.82-.46,1.64-.55,2.47-1.35-.29-2.89-.44-4.63-.44-2.46,0-4.55.29-6.27.88-1.71.59-3,1.44-3.88,2.57-.87,1.13-1.31,2.55-1.31,4.26,0,2.49.97,4.39,2.91,5.68.22.15.46.28.7.42-.68.23-1.31.54-1.85.94-1.23.9-1.85,2.12-1.85,3.65s.49,2.71,1.46,3.63c.53.49,1.24.88,2.1,1.18-1.17.19-2.09.5-2.75.94-1.11.74-1.67,1.74-1.67,3,0,1.77.91,3.14,2.73,4.1,1.82.96,4.86,1.44,9.13,1.44,2.7,0,5.02-.31,6.94-.92,1.92-.62,3.4-1.57,4.44-2.86,1.04-1.29,1.55-2.93,1.55-4.91,0-2.22-.73-3.9-2.19-5.03-1.46-1.13-3.58-1.69-6.38-1.69h-7.35c-.75,0-1.3-.11-1.65-.32-.35-.21-.52-.53-.52-.95,0-.39.21-.71.63-.95.11-.06.23-.11.38-.16,1.36.28,2.91.43,4.67.43,2.49,0,4.59-.29,6.29-.86,1.7-.57,2.99-1.43,3.88-2.57.89-1.14,1.33-2.54,1.33-4.19s-.44-3.13-1.33-4.26c-.64-.81-1.49-1.47-2.55-2.01.15-.38.38-.74.68-1.06.6-.65,1.55-.97,2.84-.97ZM534.08,423.05h8.43c.6,0,1.01.08,1.22.25.21.16.32.4.32.7,0,.36-.22.68-.65.95-.44.27-1.1.47-1.98.61-.89.14-2.01.2-3.36.2-1.65,0-2.95-.14-3.9-.41-.95-.27-1.42-.66-1.42-1.17,0-.33.12-.6.36-.81.24-.21.57-.32.99-.32ZM540.36,408.47c-.47.47-1.09.7-1.87.7s-1.41-.23-1.87-.7c-.47-.47-.7-1.15-.7-2.05s.23-1.62.7-2.07c.47-.45,1.09-.68,1.87-.68s1.4.23,1.87.68c.47.45.7,1.14.7,2.07s-.23,1.58-.7,2.05Z"/>
    <path class="cls-1" d="M570.65,400.13c-1.73-.92-3.82-1.37-6.29-1.37s-4.57.46-6.4,1.37c-1.83.92-3.25,2.25-4.26,4.01-1.01,1.76-1.51,3.87-1.51,6.33s.5,4.58,1.51,6.33c1.01,1.76,2.45,3.1,4.33,4.01,1.88.92,4.12,1.37,6.74,1.37,1.62,0,3.18-.23,4.69-.7,1.5-.47,2.8-1.16,3.9-2.1,1.1-.93,1.83-2.09,2.19-3.47l-7.3-2.16c-.24.69-.63,1.23-1.17,1.62-.54.39-1.29.59-2.25.59-.87,0-1.59-.15-2.16-.45-.57-.3-1.01-.84-1.33-1.62-.16-.4-.28-.88-.36-1.44h14.81c.06-.36.11-.8.14-1.31.03-.51.05-1.02.05-1.53,0-2.13-.45-4.02-1.35-5.66-.9-1.64-2.22-2.91-3.94-3.83ZM562.4,405.47c.56-.39,1.21-.59,1.96-.59,1.17,0,1.98.45,2.43,1.35.29.58.47,1.34.58,2.25h-6.4c.06-.44.13-.85.23-1.19.24-.83.64-1.43,1.19-1.83Z"/>
  </g>
</svg>